<?xml version="1.0" encoding="UTF-8" standalone="no"?>
<svg width="18px" height="20px" viewBox="0 0 18 20" version="1.1" xmlns="http://www.w3.org/2000/svg" xmlns:xlink="http://www.w3.org/1999/xlink">
    <!-- Generator: Sketch 3.7 (28169) - http://www.bohemiancoding.com/sketch -->
    <title>noun_385291_cc</title>
    <desc>Created with Sketch.</desc>
    <defs></defs>
    <g id="Page-1" stroke="none" stroke-width="1" fill="none" fill-rule="evenodd">
        <g id="noun_385291_cc" fill="#000000">
            <path d="M16,18 L16,0 L2,0 L2,18 L0,18 L0,20 L18,20 L18,18 L16,18 L16,18 Z M8,2 L10,2 L10,4 L8,4 L8,2 L8,2 Z M8,6 L10,6 L10,8 L8,8 L8,6 L8,6 Z M8,10 L10,10 L10,12 L8,12 L8,10 L8,10 Z M6,12 L4,12 L4,10 L6,10 L6,12 L6,12 Z M6,8 L4,8 L4,6 L6,6 L6,8 L6,8 Z M6,4 L4,4 L4,2 L6,2 L6,4 L6,4 Z M11,18 L7,18 L7,16 C7,14.9 7.9,14 9,14 C10.1,14 11,14.9 11,16 L11,18 L11,18 Z M14,12 L12,12 L12,10 L14,10 L14,12 L14,12 Z M14,8 L12,8 L12,6 L14,6 L14,8 L14,8 Z M14,4 L12,4 L12,2 L14,2 L14,4 L14,4 Z" id="Shape"></path>
        </g>
    </g>
</svg>