<?xml version="1.0" encoding="UTF-8" standalone="no"?>
<svg width="18px" height="20px" viewBox="0 0 18 20" version="1.1" xmlns="http://www.w3.org/2000/svg" xmlns:xlink="http://www.w3.org/1999/xlink">
    <!-- Generator: Sketch 3.7 (28169) - http://www.bohemiancoding.com/sketch -->
    <title>noun_385291_cc</title>
    <desc>Created with Sketch.</desc>
    <defs></defs>
    <g id="Page-1" stroke="none" stroke-width="1" fill="none" fill-rule="evenodd">
        <g id="noun_385291_cc">
            <path d="M16,18 L16,0 L2,0 L2,18 L0,18 L0,20 L18,20 L18,18 L16,18 L16,18 Z M8,2 L10,2 L10,4 L8,4 L8,2 L8,2 Z M8,6 L10,6 L10,8 L8,8 L8,6 L8,6 Z M8,10 L10,10 L10,12 L8,12 L8,10 L8,10 Z M6,12 L4,12 L4,10 L6,10 L6,12 L6,12 Z M6,8 L4,8 L4,6 L6,6 L6,8 L6,8 Z M6,4 L4,4 L4,2 L6,2 L6,4 L6,4 Z M11,18 L7,18 L7,16 C7,14.9 7.9,14 9,14 C10.1,14 11,14.9 11,16 L11,18 L11,18 Z M14,12 L12,12 L12,10 L14,10 L14,12 L14,12 Z M14,8 L12,8 L12,6 L14,6 L14,8 L14,8 Z M14,4 L12,4 L12,2 L14,2 L14,4 L14,4 Z" id="Shape" fill="#000000"></path>
            <g id="Group" transform="translate(4.000000, 2.000000)" fill="#FFFFFF">
                <polygon id="Path" points="4 0 6 0 6 2 4 2"></polygon>
                <polygon id="Path" points="4 4 6 4 6 6 4 6"></polygon>
                <path d="M7,16 L3,16 L3,14 C3,12.9 3.9,12 5,12 C6.1,12 7,12.9 7,14 L7,16 L7,16 Z" id="Path"></path>
                <polygon id="Path" points="4 8 6 8 6 10 4 10"></polygon>
                <polygon id="Path" points="2 10 0 10 0 8 2 8"></polygon>
                <polygon id="Path" points="2 6 0 6 0 4 2 4"></polygon>
                <polygon id="Path" points="2 2 0 2 0 0 2 0"></polygon>
                <polygon id="Path" points="10 10 8 10 8 8 10 8"></polygon>
                <polygon id="Path" points="10 6 8 6 8 4 10 4"></polygon>
                <polygon id="Path" points="10 2 8 2 8 0 10 0"></polygon>
            </g>
        </g>
    </g>
</svg>